HIERARCHY
ROOT pelvis
{
  OFFSET 0 100 0
  CHANNELS 6 Xposition Yposition Zposition Zrotation Xrotation Yrotation
  JOINT pelvis_right_femur
  {
    OFFSET -10.78128 -3.44521 -0.5502486
    CHANNELS 3 Zrotation Xrotation Yrotation
    JOINT right_femur_tibia
    {
      OFFSET -0.8047443 -44.0398 -0.1307829
      CHANNELS 3 Zrotation Xrotation Yrotation
      JOINT right_tibia_foot
      {
        OFFSET 3.006224 -47.83518 -5
        CHANNELS 3 Zrotation Xrotation Yrotation
        End Site
        {
          OFFSET 0 -5 15
        }
      }
    }
  }
  JOINT pelvis_left_femur
  {
    OFFSET 10.78128 -3.44521 -0.5502486
    CHANNELS 3 Zrotation Xrotation Yrotation
    JOINT left_femur_tibia
    {
      OFFSET 0.8047443 -44.0398 -0.1307829
      CHANNELS 3 Zrotation Xrotation Yrotation
      JOINT left_tibia_foot
      {
        OFFSET -4.370144 -48.10324 -4.275266
        CHANNELS 3 Zrotation Xrotation Yrotation
        End Site
        {
          OFFSET 0 -5 15
        }
      }
    }
  }
  JOINT pelvis_spine1
  {
    OFFSET 0 6.468898 -3.129235
    CHANNELS 3 Zrotation Xrotation Yrotation
    JOINT spine1
    {
      OFFSET 0 23.15396 4.99043
      CHANNELS 3 Zrotation Xrotation Yrotation
      JOINT spine2
      {
        OFFSET 0 20.79997 -5.064912
        CHANNELS 3 Zrotation Xrotation Yrotation
        JOINT neck
        {
          OFFSET 0 14.38658 9.616178
          CHANNELS 3 Zrotation Xrotation Yrotation
          End Site
          {
            OFFSET 0 20 0
          }
        }
      }
      JOINT right_manubrium
      {
        OFFSET -5.722621 16.35077 3.967754
        CHANNELS 3 Zrotation Xrotation Yrotation
        JOINT right_clavicle
        {
          OFFSET -13.16364 1.694482 -4.693211
          CHANNELS 3 Zrotation Xrotation Yrotation
          JOINT right_humerus
          {
            OFFSET -28.5034 -0.3100689 -2.792744
            CHANNELS 3 Zrotation Xrotation Yrotation
            JOINT right_radius
            {
              OFFSET -25.15693 0.02248979 -1.271978
              CHANNELS 3 Zrotation Xrotation Yrotation
              End Site
              {
                OFFSET -15 0 0
              }
            }
          }
        }
      }
      JOINT left_manubrium
      {
        OFFSET 5.722621 16.35077 3.967754
        CHANNELS 3 Zrotation Xrotation Yrotation
        JOINT left_clavicle
        {
          OFFSET 13.16364 1.694482 -4.693211
          CHANNELS 3 Zrotation Xrotation Yrotation
          JOINT left_humerus
          {
            OFFSET 29.39168 -1.063119 -2.237045
            CHANNELS 3 Zrotation Xrotation Yrotation
            JOINT left_radius
            {
              OFFSET 24.59957 -0.9528479 0.9047498
              CHANNELS 3 Zrotation Xrotation Yrotation
              End Site
              {
                OFFSET 15 -0 -0
              }
            }
          }
        }
      }
    }
  }
}
MOTION
Frames: 15
Frame Time: 0.0416666666667
-205.633 124.6724 770.9378 -10.49383 1.452822 -87.25618 7.279385 14.78995 -1.031439 -0 14.69002 -0 -6.20804 -9.237064 -2.016002 4.503337 -15.66046 -4.708233 -0 15.05221 -0 2.858663 1.223067 15.81562 2.73331 -6.562406 7.374071 -0.04078704 19.56822 -5.700963 2.408502 19.41783 1.767262 -0.4560521 -17.58705 5.561794 0.2801321 -32.97652 14.17782 87.67358 10.28841 -9.487002 -0 0 29.49371 -35.36163 26.04717 24.06334 0.9610112 -23.09888 -10.92628 -99.04408 14.05257 39.86378 0 0 -7.378013 -1.550494 18.51005 15.20198
-211.2319 124.63 772.4332 -10.46623 1.641824 -88.27828 7.279385 14.78995 -1.031439 -0 14.69002 -0 -6.20804 -9.237064 -2.016002 4.503337 -15.66046 -4.708233 -0 15.05221 -0 2.858663 1.223067 15.81562 2.73331 -6.562406 7.374071 -0.04078704 19.56822 -5.700963 2.408502 19.41783 1.767262 -0.4560521 -17.58705 5.561794 0.2801321 -32.97652 14.17782 87.67358 10.28841 -9.487002 -0 0 29.49371 -35.36163 26.04717 24.06334 0.9610112 -23.09888 -10.92628 -99.04408 14.05257 39.86378 0 0 -7.378013 -1.550494 18.51005 15.20198
-216.8569 124.5876 773.8269 -10.43526 1.830304 -89.30057 7.279385 14.78995 -1.031439 -0 14.69002 -0 -6.20804 -9.237064 -2.016002 4.503337 -15.66046 -4.708233 -0 15.05221 -0 2.858663 1.223067 15.81562 2.73331 -6.562406 7.374071 -0.04078704 19.56822 -5.700963 2.408502 19.41783 1.767262 -0.4560521 -17.58705 5.561794 0.2801321 -32.97652 14.17782 87.67358 10.28841 -9.487002 -0 0 29.49371 -35.36163 26.04717 24.06334 0.9610112 -23.09888 -10.92628 -99.04408 14.05257 39.86378 0 0 -7.378013 -1.550494 18.51005 15.20198
-222.5063 124.5451 775.1183 -10.40093 2.018201 -90.32307 7.279385 14.78995 -1.031439 -0 14.69002 -0 -6.20804 -9.237064 -2.016002 4.503337 -15.66046 -4.708233 -0 15.05221 -0 2.858663 1.223067 15.81562 2.73331 -6.562406 7.374071 -0.04078704 19.56822 -5.700963 2.408502 19.41783 1.767262 -0.4560521 -17.58705 5.561794 0.2801321 -32.97652 14.17782 87.67358 10.28841 -9.487002 -0 0 29.49371 -35.36163 26.04717 24.06334 0.9610112 -23.09888 -10.92628 -99.04408 14.05257 39.86378 0 0 -7.378013 -1.550494 18.51005 15.20198
-228.1781 124.5027 776.307 -10.36324 2.205456 -91.34581 7.279385 14.78995 -1.031439 -0 14.69002 -0 -6.20804 -9.237064 -2.016002 4.503337 -15.66046 -4.708233 -0 15.05221 -0 2.858663 1.223067 15.81562 2.73331 -6.562406 7.374071 -0.04078704 19.56822 -5.700963 2.408502 19.41783 1.767262 -0.4560521 -17.58705 5.561794 0.2801321 -32.97652 14.17782 87.67358 10.28841 -9.487002 -0 0 29.49371 -35.36163 26.04717 24.06334 0.9610112 -23.09888 -10.92628 -99.04408 14.05257 39.86378 0 0 -7.378013 -1.550494 18.51005 15.20198
-233.8706 124.4603 777.3927 -10.3222 2.392009 -92.36881 7.279385 14.78995 -1.031439 -0 14.69002 -0 -6.20804 -9.237064 -2.016002 4.503337 -15.66046 -4.708233 -0 15.05221 -0 2.858663 1.223067 15.81562 2.73331 -6.562406 7.374071 -0.04078704 19.56822 -5.700963 2.408502 19.41783 1.767262 -0.4560521 -17.58705 5.561794 0.2801321 -32.97652 14.17782 87.67358 10.28841 -9.487002 -0 0 29.49371 -35.36163 26.04717 24.06334 0.9610112 -23.09888 -10.92628 -99.04408 14.05257 39.86378 0 0 -7.378013 -1.550494 18.51005 15.20198
-239.5819 124.4179 778.375 -10.27784 2.5778 -93.39208 7.279385 14.78995 -1.031439 -0 14.69002 -0 -6.20804 -9.237064 -2.016002 4.503337 -15.66046 -4.708233 -0 15.05221 -0 2.858663 1.223067 15.81562 2.73331 -6.562406 7.374071 -0.04078704 19.56822 -5.700963 2.408502 19.41783 1.767262 -0.4560521 -17.58705 5.561794 0.2801321 -32.97652 14.17782 87.67358 10.28841 -9.487002 -0 0 29.49371 -35.36163 26.04717 24.06334 0.9610112 -23.09888 -10.92628 -99.04408 14.05257 39.86378 0 0 -7.378013 -1.550494 18.51005 15.20198
-245.31 124.3755 779.2535 -10.23015 2.76277 -94.41566 7.279385 14.78995 -1.031439 -0 14.69002 -0 -6.20804 -9.237064 -2.016002 4.503337 -15.66046 -4.708233 -0 15.05221 -0 2.858663 1.223067 15.81562 2.73331 -6.562406 7.374071 -0.04078704 19.56822 -5.700963 2.408502 19.41783 1.767262 -0.4560521 -17.58705 5.561794 0.2801321 -32.97652 14.17782 87.67358 10.28841 -9.487002 -0 0 29.49371 -35.36163 26.04717 24.06334 0.9610112 -23.09888 -10.92628 -99.04408 14.05257 39.86378 0 0 -7.378013 -1.550494 18.51005 15.20198
-251.0531 124.3331 780.0281 -10.17915 2.946859 -95.43955 7.279385 14.78995 -1.031439 -0 14.69002 -0 -6.20804 -9.237064 -2.016002 4.503337 -15.66046 -4.708233 -0 15.05221 -0 2.858663 1.223067 15.81562 2.73331 -6.562406 7.374071 -0.04078704 19.56822 -5.700963 2.408502 19.41783 1.767262 -0.4560521 -17.58705 5.561794 0.2801321 -32.97652 14.17782 87.67358 10.28841 -9.487002 -0 0 29.49371 -35.36163 26.04717 24.06334 0.9610112 -23.09888 -10.92628 -99.04408 14.05257 39.86378 0 0 -7.378013 -1.550494 18.51005 15.20198
-256.8093 124.2907 780.6984 -10.12486 3.130009 -96.46378 7.279385 14.78995 -1.031439 -0 14.69002 -0 -6.20804 -9.237064 -2.016002 4.503337 -15.66046 -4.708233 -0 15.05221 -0 2.858663 1.223067 15.81562 2.73331 -6.562406 7.374071 -0.04078704 19.56822 -5.700963 2.408502 19.41783 1.767262 -0.4560521 -17.58705 5.561794 0.2801321 -32.97652 14.17782 87.67358 10.28841 -9.487002 -0 0 29.49371 -35.36163 26.04717 24.06334 0.9610112 -23.09888 -10.92628 -99.04408 14.05257 39.86378 0 0 -7.378013 -1.550494 18.51005 15.20198
-262.5768 124.2483 781.2641 -10.06729 3.312159 -97.48836 7.279385 14.78995 -1.031439 -0 14.69002 -0 -6.20804 -9.237064 -2.016002 4.503337 -15.66046 -4.708233 -0 15.05221 -0 2.858663 1.223067 15.81562 2.73331 -6.562406 7.374071 -0.04078704 19.56822 -5.700963 2.408502 19.41783 1.767262 -0.4560521 -17.58705 5.561794 0.2801321 -32.97652 14.17782 87.67358 10.28841 -9.487002 -0 0 29.49371 -35.36163 26.04717 24.06334 0.9610112 -23.09888 -10.92628 -99.04408 14.05257 39.86378 0 0 -7.378013 -1.550494 18.51005 15.20198
-268.3535 124.2059 781.7252 -10.00645 3.493253 -98.51332 7.279385 14.78995 -1.031439 -0 14.69002 -0 -6.20804 -9.237064 -2.016002 4.503337 -15.66046 -4.708233 -0 15.05221 -0 2.858663 1.223067 15.81562 2.73331 -6.562406 7.374071 -0.04078704 19.56822 -5.700963 2.408502 19.41783 1.767262 -0.4560521 -17.58705 5.561794 0.2801321 -32.97652 14.17782 87.67358 10.28841 -9.487002 -0 0 29.49371 -35.36163 26.04717 24.06334 0.9610112 -23.09888 -10.92628 -99.04408 14.05257 39.86378 0 0 -7.378013 -1.550494 18.51005 15.20198
-274.1376 124.1635 782.0815 -9.942367 3.673231 -99.53868 7.279385 14.78995 -1.031439 -0 14.69002 -0 -6.20804 -9.237064 -2.016002 4.503337 -15.66046 -4.708233 -0 15.05221 -0 2.858663 1.223067 15.81562 2.73331 -6.562406 7.374071 -0.04078704 19.56822 -5.700963 2.408502 19.41783 1.767262 -0.4560521 -17.58705 5.561794 0.2801321 -32.97652 14.17782 87.67358 10.28841 -9.487002 -0 0 29.49371 -35.36163 26.04717 24.06334 0.9610112 -23.09888 -10.92628 -99.04408 14.05257 39.86378 0 0 -7.378013 -1.550494 18.51005 15.20198
-279.9273 124.1211 782.3328 -9.87505 3.852036 -100.5644 7.279385 14.78995 -1.031439 -0 14.69002 -0 -6.20804 -9.237064 -2.016002 4.503337 -15.66046 -4.708233 -0 15.05221 -0 2.858663 1.223067 15.81562 2.73331 -6.562406 7.374071 -0.04078704 19.56822 -5.700963 2.408502 19.41783 1.767262 -0.4560521 -17.58705 5.561794 0.2801321 -32.97652 14.17782 87.67358 10.28841 -9.487002 -0 0 29.49371 -35.36163 26.04717 24.06334 0.9610112 -23.09888 -10.92628 -99.04408 14.05257 39.86378 0 0 -7.378013 -1.550494 18.51005 15.20198
-285.7205 124.0787 782.4791 -9.804522 4.029609 -101.5906 7.279385 14.78995 -1.031439 -0 14.69002 -0 -6.20804 -9.237064 -2.016002 4.503337 -15.66046 -4.708233 -0 15.05221 -0 2.858663 1.223067 15.81562 2.73331 -6.562406 7.374071 -0.04078704 19.56822 -5.700963 2.408502 19.41783 1.767262 -0.4560521 -17.58705 5.561794 0.2801321 -32.97652 14.17782 87.67358 10.28841 -9.487002 -0 0 29.49371 -35.36163 26.04717 24.06334 0.9610112 -23.09888 -10.92628 -99.04408 14.05257 39.86378 0 0 -7.378013 -1.550494 18.51005 15.20198
